<svg width="250" height="29" viewBox="0 0 250 29" fill="none" xmlns="http://www.w3.org/2000/svg">
<path d="M249.459 18.082C249.697 17.9415 249.776 17.6349 249.635 17.3972L247.347 13.5226C247.206 13.2848 246.9 13.2059 246.662 13.3464C246.424 13.4868 246.345 13.7934 246.486 14.0312L248.52 17.4752L245.076 19.5096C244.838 19.65 244.759 19.9566 244.9 20.1944C245.04 20.4321 245.347 20.511 245.585 20.3706L249.459 18.082ZM0.293878 10.9961C0.169275 11.4803 0.169744 11.4804 0.170621 11.4806C0.171459 11.4809 0.172745 11.4812 0.174417 11.4816C0.177761 11.4825 0.182733 11.4838 0.18932 11.4854C0.202493 11.4888 0.222127 11.4938 0.248127 11.5005C0.300127 11.5137 0.377593 11.5335 0.47977 11.5593C0.684124 11.611 0.987325 11.6873 1.38334 11.7857C2.17537 11.9825 3.33867 12.2678 4.82498 12.6222C7.79756 13.331 12.0624 14.3162 17.2333 15.4224C27.5742 17.6347 41.5433 20.3317 56.0498 22.2688C70.5514 24.2053 85.6126 25.3856 98.1299 24.5552C104.388 24.14 110.032 23.2209 114.66 21.631C119.284 20.0423 122.94 17.7681 125.158 14.6113L124.749 14.3238L124.34 14.0362C122.289 16.955 118.852 19.1334 114.335 20.6853C109.821 22.2359 104.274 23.1454 98.0637 23.5574C85.6442 24.3813 70.6592 23.2108 56.1821 21.2776C41.71 19.3451 27.7681 16.6535 17.4425 14.4446C12.2803 13.3402 8.02307 12.3567 5.05693 11.6495C3.57388 11.2958 2.41364 11.0113 1.62447 10.8152C1.22989 10.7171 0.928074 10.6412 0.725064 10.5899C0.623559 10.5642 0.546755 10.5446 0.495407 10.5315C0.469732 10.525 0.450422 10.52 0.437569 10.5167C0.431143 10.5151 0.426332 10.5139 0.423146 10.513C0.421553 10.5126 0.420387 10.5123 0.419589 10.5121C0.418831 10.5119 0.418481 10.5118 0.293878 10.9961ZM124.749 14.3238L125.158 14.6113C127.21 11.6926 130.647 9.51415 135.164 7.96225C139.677 6.41161 145.225 5.50215 151.435 5.09016C163.855 4.26621 178.84 5.4367 193.317 7.36991C207.789 9.30246 221.731 11.994 232.056 14.2029C237.219 15.3073 241.476 16.2908 244.442 16.9981C245.925 17.3517 247.085 17.6363 247.874 17.8323C248.269 17.9304 248.571 18.0063 248.774 18.0577C248.875 18.0833 248.952 18.1029 249.003 18.116C249.029 18.1225 249.048 18.1275 249.061 18.1308C249.068 18.1324 249.072 18.1337 249.076 18.1345C249.077 18.1349 249.078 18.1352 249.079 18.1354C249.08 18.1356 249.08 18.1357 249.205 17.6514C249.33 17.1672 249.329 17.1671 249.328 17.1669C249.327 17.1667 249.326 17.1663 249.324 17.1659C249.321 17.165 249.316 17.1638 249.309 17.1621C249.296 17.1587 249.277 17.1537 249.251 17.147C249.199 17.1338 249.121 17.1141 249.019 17.0882C248.815 17.0365 248.511 16.9602 248.115 16.8618C247.323 16.665 246.16 16.3797 244.674 16.0253C241.701 15.3165 237.436 14.3313 232.265 13.2251C221.925 11.0129 207.956 8.31584 193.449 6.37871C178.947 4.44223 163.886 3.26192 151.369 4.09235C145.111 4.50755 139.467 5.42657 134.839 7.01651C130.215 8.60518 126.559 10.8794 124.34 14.0362L124.749 14.3238Z" fill="#720000"/>
</svg>
