<svg width="159" height="44" viewBox="0 0 159 44" fill="none" xmlns="http://www.w3.org/2000/svg">
<path d="M122.794 39.9247C125.029 40.1014 127.261 40.2896 129.49 40.4939V0.00344297H122.794V39.9247ZM15.0833 24.9018L6.36334 0.00344297H0V44C2.22734 43.6729 4.45913 43.3608 6.69538 43.0612V19.136L14.4493 42.0788C16.8883 41.7873 19.3307 41.5119 21.7787 41.2525V0.00344297H15.0833V24.9018ZM28.2178 40.611C34.3883 40.0337 40.589 39.5574 46.8164 39.1879V32.3915C42.8375 32.6279 38.8698 32.909 34.9131 33.2292V22.9417C37.5093 22.9153 40.9266 22.8338 43.9551 22.8716V16.0764C41.5361 16.0706 37.6475 16.1108 34.9131 16.1475V6.86069H46.8164V0.00459063H28.2178V40.611ZM51.1084 6.85954H58.1158V38.6359C60.3442 38.5498 62.576 38.4775 64.8112 38.4178V6.85954H71.8185V0.00344297H51.1084V6.85954ZM76.1116 38.2319H82.807V22.5411H91.8835V15.7458H82.807V6.86069H94.8028V0.00459063H76.1116V38.233V38.2319ZM159 0.00344297H151.646L146.798 11.5776L142.441 0.00344297H135.198L142.982 20.6854L134.484 40.9748C136.835 41.2112 139.18 41.4625 141.521 41.7288L146.464 29.932L151.359 42.9361C153.908 43.2735 156.452 43.6259 158.99 43.9989L159 43.9943L150.278 20.8242L159 0.00344297ZM105.79 0H99.0948V38.5693C105.18 38.785 111.239 39.1007 117.273 39.5161V32.7208C113.456 32.458 109.628 32.2365 105.79 32.0517V0Z" fill="#E50914"/>
</svg>
