<svg width="32" height="32" viewBox="0 0 32 32" fill="none" xmlns="http://www.w3.org/2000/svg">
<path d="M28.6867 5.29859C27.9537 4.56987 27.0833 3.9918 26.1254 3.5974C25.1675 3.203 24.1407 3 23.1038 3C22.0669 3 21.0402 3.203 20.0822 3.5974C19.1243 3.9918 18.254 4.56987 17.5209 5.29859L15.9996 6.81023L14.4783 5.29859C12.9976 3.82732 10.9894 3.00076 8.89541 3.00076C6.80142 3.00076 4.79319 3.82732 3.31251 5.29859C1.83184 6.76986 1 8.76534 1 10.846C1 12.9267 1.83184 14.9222 3.31251 16.3935L4.83382 17.9051L15.9996 29L27.1654 17.9051L28.6867 16.3935C29.4201 15.6651 30.0019 14.8003 30.3988 13.8484C30.7957 12.8966 31 11.8764 31 10.846C31 9.81571 30.7957 8.79548 30.3988 7.84363C30.0019 6.89178 29.4201 6.02697 28.6867 5.29859Z" fill="#883FFE" stroke="white" stroke-linecap="round" stroke-linejoin="round"/>
</svg>
