<svg width="30" height="31" viewBox="0 0 30 31" fill="none" xmlns="http://www.w3.org/2000/svg">
<g clip-path="url(#clip0_3202_9317)">
<path d="M15 3.44922C19.0078 3.44922 19.4824 3.4668 21.0586 3.53711C22.5234 3.60156 23.3145 3.84766 23.8418 4.05273C24.5391 4.32227 25.043 4.65039 25.5645 5.17188C26.0918 5.69922 26.4141 6.19727 26.6836 6.89453C26.8887 7.42188 27.1348 8.21875 27.1992 9.67773C27.2695 11.2598 27.2871 11.7344 27.2871 15.7363C27.2871 19.7441 27.2695 20.2188 27.1992 21.7949C27.1348 23.2598 26.8887 24.0508 26.6836 24.5781C26.4141 25.2754 26.0859 25.7793 25.5645 26.3008C25.0371 26.8281 24.5391 27.1504 23.8418 27.4199C23.3145 27.625 22.5176 27.8711 21.0586 27.9355C19.4766 28.0059 19.002 28.0234 15 28.0234C10.9922 28.0234 10.5176 28.0059 8.94141 27.9355C7.47656 27.8711 6.68555 27.625 6.1582 27.4199C5.46094 27.1504 4.95703 26.8223 4.43555 26.3008C3.9082 25.7734 3.58594 25.2754 3.31641 24.5781C3.11133 24.0508 2.86523 23.2539 2.80078 21.7949C2.73047 20.2129 2.71289 19.7383 2.71289 15.7363C2.71289 11.7285 2.73047 11.2539 2.80078 9.67773C2.86523 8.21289 3.11133 7.42188 3.31641 6.89453C3.58594 6.19727 3.91406 5.69336 4.43555 5.17188C4.96289 4.64453 5.46094 4.32227 6.1582 4.05273C6.68555 3.84766 7.48242 3.60156 8.94141 3.53711C10.5176 3.4668 10.9922 3.44922 15 3.44922ZM15 0.748047C10.9277 0.748047 10.418 0.765625 8.81836 0.835938C7.22461 0.90625 6.12891 1.16406 5.17969 1.5332C4.18945 1.91992 3.35156 2.42969 2.51953 3.26758C1.68164 4.09961 1.17188 4.9375 0.785156 5.92188C0.416016 6.87695 0.158203 7.9668 0.0878906 9.56055C0.0175781 11.166 0 11.6758 0 15.748C0 19.8203 0.0175781 20.3301 0.0878906 21.9297C0.158203 23.5234 0.416016 24.6191 0.785156 25.5684C1.17188 26.5586 1.68164 27.3965 2.51953 28.2285C3.35156 29.0605 4.18945 29.5762 5.17383 29.957C6.12891 30.3262 7.21875 30.584 8.8125 30.6543C10.4121 30.7246 10.9219 30.7422 14.9941 30.7422C19.0664 30.7422 19.5762 30.7246 21.1758 30.6543C22.7695 30.584 23.8652 30.3262 24.8145 29.957C25.7988 29.5762 26.6367 29.0605 27.4688 28.2285C28.3008 27.3965 28.8164 26.5586 29.1973 25.5742C29.5664 24.6191 29.8242 23.5293 29.8945 21.9355C29.9648 20.3359 29.9824 19.8262 29.9824 15.7539C29.9824 11.6816 29.9648 11.1719 29.8945 9.57227C29.8242 7.97852 29.5664 6.88281 29.1973 5.93359C28.8281 4.9375 28.3184 4.09961 27.4805 3.26758C26.6484 2.43555 25.8105 1.91992 24.8262 1.53906C23.8711 1.16992 22.7813 0.912109 21.1875 0.841797C19.582 0.765625 19.0723 0.748047 15 0.748047Z" fill="#0D031C"/>
<path d="M15 8.04297C10.7461 8.04297 7.29492 11.4941 7.29492 15.748C7.29492 20.002 10.7461 23.4531 15 23.4531C19.2539 23.4531 22.7051 20.002 22.7051 15.748C22.7051 11.4941 19.2539 8.04297 15 8.04297ZM15 20.7461C12.2402 20.7461 10.002 18.5078 10.002 15.748C10.002 12.9883 12.2402 10.75 15 10.75C17.7598 10.75 19.998 12.9883 19.998 15.748C19.998 18.5078 17.7598 20.7461 15 20.7461Z" fill="#0D031C"/>
<path d="M24.8086 7.73828C24.8086 8.73438 24 9.53711 23.0098 9.53711C22.0137 9.53711 21.2109 8.72852 21.2109 7.73828C21.2109 6.74219 22.0195 5.93945 23.0098 5.93945C24 5.93945 24.8086 6.74805 24.8086 7.73828Z" fill="#0D031C"/>
</g>
<defs>
<clipPath id="clip0_3202_9317">
<rect width="30" height="30" fill="white" transform="translate(0 0.748047)"/>
</clipPath>
</defs>
</svg>
