<svg width="28" height="29" viewBox="0 0 28 29" fill="none" xmlns="http://www.w3.org/2000/svg">
<path d="M14.002 5.70605C14.002 5.70605 22.0255 5.70669 24.0312 6.25C25.1356 6.54439 26.0045 7.41782 26.2988 8.53125C26.8331 10.546 26.8291 14.748 26.8291 14.748C26.8291 14.7774 26.8272 18.956 26.2949 20.9639C26.0006 22.0731 25.131 22.9472 24.0264 23.2461C22.0324 23.7829 14.0555 23.7851 13.998 23.7852C13.998 23.7852 5.96993 23.7849 3.96875 23.2461C2.86424 22.9517 1.99542 22.0775 1.70117 20.9639C1.16887 18.9561 1.167 14.7774 1.16699 14.748C1.16699 14.748 1.1664 10.5468 1.70508 8.52734C1.99936 7.41813 2.86896 6.54396 3.97363 6.24512C5.96762 5.70827 13.9447 5.70606 14.002 5.70605ZM11.376 18.5645L18.0859 14.748L11.376 10.9316V18.5645Z" fill="#0D031C"/>
</svg>
