<svg width="180" height="180" viewBox="0 0 180 180" fill="none" xmlns="http://www.w3.org/2000/svg">
<path d="M120 157.5V142.5C120 134.544 116.839 126.913 111.213 121.287C105.587 115.661 97.9565 112.5 90 112.5H45C37.0435 112.5 29.4129 115.661 23.7868 121.287C18.1607 126.913 15 134.544 15 142.5V157.5M120 23.46C126.433 25.1278 132.13 28.8845 136.198 34.1405C140.265 39.3965 142.471 45.8542 142.471 52.5C142.471 59.1458 140.265 65.6035 136.198 70.8595C132.13 76.1155 126.433 79.8722 120 81.54M165 157.5V142.5C164.995 135.853 162.783 129.396 158.71 124.142C154.638 118.889 148.936 115.137 142.5 113.475M97.5 52.5C97.5 69.0685 84.0685 82.5 67.5 82.5C50.9315 82.5 37.5 69.0685 37.5 52.5C37.5 35.9315 50.9315 22.5 67.5 22.5C84.0685 22.5 97.5 35.9315 97.5 52.5Z" stroke="#0D031C" stroke-width="3" stroke-linecap="round" stroke-linejoin="round"/>
</svg>
