<svg width="180" height="180" viewBox="0 0 180 180" fill="none" xmlns="http://www.w3.org/2000/svg">
<path d="M18.7498 127.5C13.5105 102.774 13.5105 77.2255 18.7498 52.5C19.4382 49.9891 20.7683 47.7006 22.6094 45.8595C24.4504 44.0185 26.7389 42.6884 29.2498 42C69.4757 35.3359 110.524 35.3359 150.75 42C153.261 42.6884 155.549 44.0185 157.39 45.8595C159.231 47.7006 160.561 49.9891 161.25 52.5C166.489 77.2255 166.489 102.774 161.25 127.5C160.561 130.011 159.231 132.299 157.39 134.14C155.549 135.981 153.261 137.312 150.75 138C110.524 144.665 69.4756 144.665 29.2498 138C26.7389 137.312 24.4504 135.981 22.6094 134.14C20.7683 132.299 19.4382 130.011 18.7498 127.5Z" stroke="#0D031C" stroke-width="3" stroke-linecap="round" stroke-linejoin="round"/>
<path d="M74.9998 112.5L112.5 90L74.9998 67.5V112.5Z" stroke="#0D031C" stroke-width="3" stroke-linecap="round" stroke-linejoin="round"/>
</svg>
