<svg width="180" height="180" viewBox="0 0 180 180" fill="none" xmlns="http://www.w3.org/2000/svg">
<path d="M165 90C165 131.421 131.421 165 90 165M165 90C165 48.5786 131.421 15 90 15M165 90H15M90 165C48.5786 165 15 131.421 15 90M90 165C70.7418 144.779 60 117.924 60 90C60 62.0756 70.7418 35.2212 90 15M90 165C109.258 144.779 120 117.924 120 90C120 62.0756 109.258 35.2212 90 15M15 90C15 48.5786 48.5786 15 90 15" stroke="#0D031C" stroke-width="3" stroke-linecap="round" stroke-linejoin="round"/>
</svg>
