<svg width="180" height="180" viewBox="0 0 180 180" fill="none" xmlns="http://www.w3.org/2000/svg">
<path d="M52.5 157.5H127.5M112.748 70.8C113.484 71.2262 114.096 71.8386 114.521 72.5758C114.946 73.313 115.17 74.149 115.17 75C115.17 75.851 114.946 76.687 114.521 77.4242C114.096 78.1614 113.484 78.7738 112.748 79.2L82.26 96.84C81.5237 97.266 80.6882 97.4903 79.8376 97.4903C78.9869 97.4903 78.1514 97.266 77.4151 96.8401C76.6788 96.4141 76.0679 95.8016 75.6438 95.0642C75.2198 94.3268 74.9978 93.4906 75 92.64V57.36C74.9985 56.5105 75.2208 55.6756 75.6444 54.9392C76.068 54.2029 76.6781 53.5911 77.4132 53.1654C78.1484 52.7396 78.9826 52.515 79.8321 52.5141C80.6816 52.5131 81.5164 52.7359 82.2525 53.16L112.748 70.8ZM30 22.5H150C158.284 22.5 165 29.2157 165 37.5V112.5C165 120.784 158.284 127.5 150 127.5H30C21.7157 127.5 15 120.784 15 112.5V37.5C15 29.2157 21.7157 22.5 30 22.5Z" stroke="#F5F5F5" stroke-width="3" stroke-linecap="round" stroke-linejoin="round"/>
</svg>
